# xmcd CD database file
#
# Track frame offsets:
#	150
#	10761
#	15956
#	33239
#	44851
#	54457
#	64239
#	74152
#	86915
#	100220
#	111340
#	121755
#	137199
#	150680
#	172588
#	185686
#	198774
#	206809
#	214063
#	226448
#
# Disc length: 3185 seconds
#
# Revision: 3
# Processed by: cddbd v1.5.2PL0 Copyright (c) Steve Scherf et al.
# Submitted via: CDex 1.95
#
DISCID=1e0c6f14
DTITLE=Various Artist - Golden Country Hits Vol21 Cd1
DYEAR=1999
DGENRE=Oldies
TTITLE0=Carl Perkins - What am I living for
TTITLE1=Bob Wills - Big taters in sandy land
TTITLE2=Anne Murray - Nobody loves me like you do
TTITLE3=Willie Nelson - End of understanding
TTITLE4=Oak Ridge Quartet - I know my savior is there
TTITLE5=Kenny Rogers - Where does Rosie go
TTITLE6=Conway Twitty - Riskin' one
TTITLE7=Patsy Cline - Yes I understand
TTITLE8=Freddy Fender - These arms of mine
TTITLE9=Faron Young - Live fast love hard die young
TTITLE10=Connie Smith - Because I love You that's why
TTITLE11=Eddie Raven - You're too much for me
TTITLE12=Ferlin Husky - Good  ole Country Music is here
TTITLE13=Dottie West - Crazy Fall to pieces Sweet dreams Crazy
TTITLE14=George Jones - Just a girl I used to know
TTITLE15=Glen Yarborough - Waltzing Mathilda
TTITLE16=Hoyt Axton - I love to sing
TTITLE17=Jimmy Dean - The last letter
TTITLE18=Mickey Gilley - You don't know me
TTITLE19=Terri Gibbs - Reckliess lovin'
EXTD=YEAR: 1999
EXTT0=
EXTT1=
EXTT2=
EXTT3=
EXTT4=
EXTT5=
EXTT6=
EXTT7=
EXTT8=
EXTT9=
EXTT10=
EXTT11=
EXTT12=
EXTT13=
EXTT14=
EXTT15=
EXTT16=
EXTT17=
EXTT18=
EXTT19=
PLAYORDER=
